<?xml version="1.0" encoding="UTF-8" standalone="no"?>
<svg
   xmlns:dc="http://purl.org/dc/elements/1.1/"
   xmlns:cc="http://creativecommons.org/ns#"
   xmlns:rdf="http://www.w3.org/1999/02/22-rdf-syntax-ns#"
   xmlns:svg="http://www.w3.org/2000/svg"
   xmlns="http://www.w3.org/2000/svg"
   xmlns:sodipodi="http://sodipodi.sourceforge.net/DTD/sodipodi-0.dtd"
   xmlns:inkscape="http://www.inkscape.org/namespaces/inkscape"
   inkscape:version="1.0 (4035a4fb49, 2020-05-01)"
   sodipodi:docname="Black Graphic.svg"
   id="svg207"
   version="1.1"
   viewBox="0 0 96 96"
   height="32"
   width="32"
   class="thumb">
  <metadata
     id="metadata211">
    <rdf:RDF>
      <cc:Work
         rdf:about="">
        <dc:format>image/svg+xml</dc:format>
        <dc:type
           rdf:resource="http://purl.org/dc/dcmitype/StillImage" />
        <dc:title></dc:title>
      </cc:Work>
    </rdf:RDF>
  </metadata>
  <sodipodi:namedview
     inkscape:current-layer="svg207"
     inkscape:window-maximized="1"
     inkscape:window-y="-8"
     inkscape:window-x="1912"
     inkscape:cy="61.76822"
     inkscape:cx="100"
     inkscape:zoom="4.185"
     showgrid="false"
     id="namedview209"
     inkscape:window-height="1027"
     inkscape:window-width="1920"
     inkscape:pageshadow="2"
     inkscape:pageopacity="0"
     guidetolerance="10"
     gridtolerance="10"
     objecttolerance="10"
     borderopacity="1"
     bordercolor="#666666"
     pagecolor="#ffffff" />
  <defs
     id="defs127" />
  <g
     id="g205"
     transform="matrix(0.62251044,0,0,0.62251044,-75.381251,-2.2316383)">
    <g
       id="g146"
       transform="matrix(-1.2856,0.0224,-0.0224,-1.2856,269.59,158.2043)">
      <svg
         id="svg144"
         version="1.1"
         viewBox="11.429 23.96 77.004 53.7"
         height="53.700001"
         width="77.003998">
        <defs
           id="defs134">
          <linearGradient
             id="linearGradientSk22bikz74"
             y2="0.5"
             x2="1"
             y1="0.5"
             x1="0">
            <stop
               id="stop129"
               stop-opacity="0.54"
               stop-color="#74d14c"
               offset="0%" />
            <stop
               id="stop131"
               stop-opacity="0.54"
               stop-color="#74d14c"
               offset="100%" />
          </linearGradient>
        </defs>
        <g
           id="g136" />
        <g
           id="g138" />
        <g
           id="g142">
          <path
             id="path140"
             stroke="none"
             fill="#000000"
             d="m 73.232,28.96 c -5.631,0 -10.194,4.567 -10.194,10.197 0,8.74 -4.368,13.108 -13.11,13.108 -8.737,0 -13.111,-4.369 -13.111,-13.108 0,-5.63 -4.563,-10.197 -10.194,-10.197 -5.631,0 -10.194,4.567 -10.194,10.197 0,5.631 4.563,10.198 10.194,10.198 8.742,0 13.111,4.369 13.111,13.111 0,5.631 4.563,10.194 10.195,10.194 5.63,0 10.2,-4.563 10.2,-10.194 0,-8.742 4.368,-13.111 13.104,-13.111 5.637,0 10.2,-4.567 10.2,-10.198 0,-5.63 -4.564,-10.197 -10.201,-10.197 z"
             clip-rule="evenodd"
             fill-rule="evenodd" />
        </g>
      </svg>
    </g>
    <g
       id="g165"
       transform="matrix(1.2858,0,0,1.2858,169.9971,60.9266)">
      <svg
         id="svg163"
         version="1.1"
         viewBox="11.429 23.96 77.004 53.7"
         height="53.700001"
         width="77.003998">
        <defs
           id="defs153">
          <linearGradient
             id="linearGradientSk22bikz7a"
             y2="0.5"
             x2="1"
             y1="0.5"
             x1="0">
            <stop
               id="stop148"
               stop-opacity="0.54"
               stop-color="#61c78c"
               offset="0%" />
            <stop
               id="stop150"
               stop-opacity="0.54"
               stop-color="#61c78c"
               offset="100%" />
          </linearGradient>
        </defs>
        <g
           id="g155" />
        <g
           id="g157" />
        <g
           id="g161">
          <path
             id="path159"
             stroke="none"
             fill="#000000"
             d="m 73.232,28.96 c -5.631,0 -10.194,4.567 -10.194,10.197 0,8.74 -4.368,13.108 -13.11,13.108 -8.737,0 -13.111,-4.369 -13.111,-13.108 0,-5.63 -4.563,-10.197 -10.194,-10.197 -5.631,0 -10.194,4.567 -10.194,10.197 0,5.631 4.563,10.198 10.194,10.198 8.742,0 13.111,4.369 13.111,13.111 0,5.631 4.563,10.194 10.195,10.194 5.63,0 10.2,-4.563 10.2,-10.194 0,-8.742 4.368,-13.111 13.104,-13.111 5.637,0 10.2,-4.567 10.2,-10.198 0,-5.63 -4.564,-10.197 -10.201,-10.197 z"
             clip-rule="evenodd"
             fill-rule="evenodd" />
        </g>
      </svg>
    </g>
    <g
       id="g184"
       transform="matrix(0.0449,1.285,-1.285,0.0449,204.8251,0.3381)">
      <svg
         id="svg182"
         version="1.1"
         viewBox="11.429 23.96 77.004 53.7"
         height="53.700001"
         width="77.003998">
        <defs
           id="defs172">
          <linearGradient
             id="linearGradientSk22bikz7g"
             y2="0.5"
             x2="1"
             y1="0.5"
             x1="0">
            <stop
               id="stop167"
               stop-opacity="0.53"
               stop-color="#33b5cc"
               offset="0%" />
            <stop
               id="stop169"
               stop-opacity="0.53"
               stop-color="#33b5cc"
               offset="100%" />
          </linearGradient>
        </defs>
        <g
           id="g174" />
        <g
           id="g176" />
        <g
           id="g180">
          <path
             id="path178"
             stroke="none"
             fill="#000000"
             d="m 73.232,28.96 c -5.631,0 -10.194,4.567 -10.194,10.197 0,8.74 -4.368,13.108 -13.11,13.108 -8.737,0 -13.111,-4.369 -13.111,-13.108 0,-5.63 -4.563,-10.197 -10.194,-10.197 -5.631,0 -10.194,4.567 -10.194,10.197 0,5.631 4.563,10.198 10.194,10.198 8.742,0 13.111,4.369 13.111,13.111 0,5.631 4.563,10.194 10.195,10.194 5.63,0 10.2,-4.563 10.2,-10.194 0,-8.742 4.368,-13.111 13.104,-13.111 5.637,0 10.2,-4.567 10.2,-10.198 0,-5.63 -4.564,-10.197 -10.201,-10.197 z"
             clip-rule="evenodd"
             fill-rule="evenodd" />
        </g>
      </svg>
    </g>
    <g
       id="g203"
       transform="matrix(0,1.2858,-1.2858,0,208.5734,60.4971)">
      <svg
         id="svg201"
         version="1.1"
         viewBox="11.429 23.96 77.004 53.7"
         height="53.700001"
         width="77.003998">
        <defs
           id="defs191">
          <linearGradient
             id="linearGradientSk22bikz7m"
             y2="0.5"
             x2="1"
             y1="0.5"
             x1="0">
            <stop
               id="stop186"
               stop-opacity="0.53"
               stop-color="#5accc2"
               offset="0%" />
            <stop
               id="stop188"
               stop-opacity="0.53"
               stop-color="#5accc2"
               offset="100%" />
          </linearGradient>
        </defs>
        <g
           id="g193" />
        <g
           id="g195" />
        <g
           id="g199">
          <path
             id="path197"
             stroke="none"
             fill="#000000"
             d="m 73.232,28.96 c -5.631,0 -10.194,4.567 -10.194,10.197 0,8.74 -4.368,13.108 -13.11,13.108 -8.737,0 -13.111,-4.369 -13.111,-13.108 0,-5.63 -4.563,-10.197 -10.194,-10.197 -5.631,0 -10.194,4.567 -10.194,10.197 0,5.631 4.563,10.198 10.194,10.198 8.742,0 13.111,4.369 13.111,13.111 0,5.631 4.563,10.194 10.195,10.194 5.63,0 10.2,-4.563 10.2,-10.194 0,-8.742 4.368,-13.111 13.104,-13.111 5.637,0 10.2,-4.567 10.2,-10.198 0,-5.63 -4.564,-10.197 -10.201,-10.197 z"
             clip-rule="evenodd"
             fill-rule="evenodd" />
        </g>
      </svg>
    </g>
  </g>
</svg>
